<?xml version="1.0" encoding="UTF-8"?><svg xmlns="http://www.w3.org/2000/svg" xmlns:xlink="http://www.w3.org/1999/xlink" fill-opacity="1" color-rendering="auto" color-interpolation="auto" text-rendering="auto" stroke="black" stroke-linecap="square" width="476" stroke-miterlimit="10" shape-rendering="auto" stroke-opacity="1" fill="black" stroke-dasharray="none" font-weight="normal" stroke-width="1" height="243" font-family="'Dialog'" font-style="normal" stroke-linejoin="miter" font-size="12px" stroke-dashoffset="0" image-rendering="auto">
  <!--Generated by ySVG 2.5-->
  <defs id="genericDefs"/>
  <g>
    <defs id="defs1">
      <clipPath clipPathUnits="userSpaceOnUse" id="clipPath1">
        <path d="M0 0 L476 0 L476 243 L0 243 L0 0 Z"/>
      </clipPath>
      <clipPath clipPathUnits="userSpaceOnUse" id="clipPath2">
        <path d="M261 113 L737 113 L737 356 L261 356 L261 113 Z"/>
      </clipPath>
      <clipPath clipPathUnits="userSpaceOnUse" id="clipPath3">
        <path d="M-989.748 -1540.6726 L7462.0244 -1540.6726 L7462.0244 2168.9314 L-989.748 2168.9314 L-989.748 -1540.6726 Z"/>
      </clipPath>
      <clipPath clipPathUnits="userSpaceOnUse" id="clipPath4">
        <path d="M-53.3898 -876.7254 L1809.2097 -876.7254 L1809.2097 430.2946 L-53.3898 430.2946 L-53.3898 -876.7254 Z"/>
      </clipPath>
      <clipPath clipPathUnits="userSpaceOnUse" id="clipPath5">
        <path d="M-329.7139 -882.1041 L1532.8856 -882.1041 L1532.8856 424.916 L-329.7139 424.916 L-329.7139 -882.1041 Z"/>
      </clipPath>
      <clipPath clipPathUnits="userSpaceOnUse" id="clipPath6">
        <path d="M-3613.0964 -670.2113 L1709.7068 -670.2113 L1709.7068 2434.1936 L-3613.0964 2434.1936 L-3613.0964 -670.2113 Z"/>
      </clipPath>
      <clipPath clipPathUnits="userSpaceOnUse" id="clipPath7">
        <path d="M-1766.2836 -1238.22 L3556.5195 -1238.22 L3556.5195 1866.1848 L-1766.2836 1866.1848 L-1766.2836 -1238.22 Z"/>
      </clipPath>
    </defs>
    <g fill="white" text-rendering="geometricPrecision" shape-rendering="geometricPrecision" transform="translate(-261,-113)" stroke="white">
      <rect x="261" width="476" height="243" y="113" clip-path="url(#clipPath2)" stroke="none"/>
    </g>
    <g text-rendering="geometricPrecision" shape-rendering="geometricPrecision" transform="matrix(0.0563,0,0,0.0655,55.7422,100.9228)">
      <g clip-path="url(#clipPath3)">
        <svg:svg xmlns:svg="http://www.w3.org/2000/svg" xmlns:sodipodi="http://sodipodi.sourceforge.net/DTD/sodipodi-0.dtd" xmlns:inkscape="http://www.inkscape.org/namespaces/inkscape" xmlns:dc="http://purl.org/dc/elements/1.1/" xmlns:cc="http://creativecommons.org/ns#" xmlns:rdf="http://www.w3.org/1999/02/22-rdf-syntax-ns#" opacity="1" writing-mode="lr-tb" stop-color="rgb(0, 0, 0)" shape-rendering="auto" glyph-orientation-horizontal="0deg" color-profile="auto" lighting-color="rgb(255, 255, 255)" color="rgb(0, 0, 0)" font-weight="400" alignment-baseline="auto" font-style="normal" version="1.1" color-interpolation-filters="linearrgb" text-anchor="start" stroke-linecap="butt" color-interpolation="srgb" font-variant="normal" word-spacing="normal" fill-opacity="1" text-rendering="auto" clip-path="none" text-decoration="none" letter-spacing="normal" viewport="0 0 720 490" glyph-orientation-vertical="auto" display="inline" font-size-adjust="none" overflow="visible" fill="rgb(0, 0, 0)" font-stretch="normal" stroke-dasharray="none" inkscape:version="0.48.2 r9819" id="svg1.svg2" stroke-miterlimit="4" stop-opacity="1" color-rendering="auto" font-size="12" pointer-events="visiblepainted" mask="none" direction="ltr" baseline-shift="baseline" sodipodi:docname="arduino-logo.svg" enable-background="accumulate" fill-rule="nonzero" image-rendering="auto" stroke-dashoffset="0" marker-end="none" width="720px" clip="auto" cursor="auto" stroke="none" filter="none" visibility="visible" kerning="auto" stroke-width="1" font-family="&quot;Arial&quot;,&quot;Helvetica&quot;,sans-serif" preserveAspectRatio="xMinYMin meet" flood-opacity="1" clip-rule="nonzero" src="none" height="490px" unicode-bidi="normal" stroke-linejoin="miter" stroke-opacity="1" flood-color="rgb(0, 0, 0)" dominant-baseline="auto" marker-start="none" marker-mid="none">
  <svg:metadata id="svg1.metadata26">
    
  </svg:metadata>
  <svg:defs id="svg1.defs24"/>
  
  <svg:g fill="none" id="svg1.g4" stroke-width="60" stroke-opacity="100%" stroke="rgb(0, 151, 156)">
    <svg:path d=" M 174 30  a 10.50 10.10 0 0 0 0 280  c 190 10 170 -280 370 -280  a 10.50 10.10 0 0 1 0 280  c -190 10 -170 -280 -370 -280 " id="svg1.path6"/>
  </svg:g>
  <svg:g font-size="167" id="svg1.g8" style="font-size:167px;text-anchor:middle;fill:#00979c;stroke:#00979c;stroke-width:20;font-family:sans-serif" transform="translate(0,10)">
    <svg:g style="" id="svg1.text10">
      <svg:path style="" d="m 528.06885,194.67432 0,-32.78028 -32.53565,0 0,-13.69922 32.53565,0 0,-32.53564 13.8623,0 0,32.53564 32.53565,0 0,13.69922 -32.53565,0 0,32.78028 z" id="svg1.path3075"/>
    </svg:g>
    <svg:text x="181" dy="0" y="218" id="svg1.text12">
      
    </svg:text>
  </svg:g>
  <svg:g fill="rgb(0, 151, 156)" font-size="40" id="svg1.g14" font-family="Arial" text-anchor="middle" stroke="rgb(0, 151, 156)">
    <svg:g style="" id="svg1.text16">
      <svg:path style="" d="m 681.55078,29.285156 0,-13.554687 -5.15625,0 0,-2.363281 13.00781,0 0,2.363281 -5.19531,0 0,13.554687 z m 9.62891,0 0,-15.917968 3.90625,0 4.02343,12.714843 3.88672,-12.714843 3.82813,0 0,15.917968 -2.42188,0 0,-13.359375 -4.10156,13.359375 -2.40234,0 -4.27735,-13.554687 0,13.554687 z" id="svg1.path3072"/>
    </svg:g>
  </svg:g>
  <svg:g font-size="152" fill="rgb(0, 151, 156)" text-anchor="left" font-family="Consolas" id="svg1.g18" stroke="rgb(0, 151, 156)" font-weight="bold" stroke-width="2" letter-spacing="0.1em">
    <svg:g style="font-size:182.28144836px;stroke-width:2.39844012" id="svg1.text20" transform="scale(1.0171639,0.98312568)">
      <svg:path style="font-size:182.28144836px;stroke-width:2.39844012" d="m 83.275567,494.84543 -6.408332,-22.96319 -40.586104,0 -6.586341,22.96319 -21.7171256,0 34.4447856,-116.32903 30.617587,0 34.444783,116.32903 z m -26.43437,-94.96792 -15.308793,54.1148 30.439577,0 z" id="svg1.path3057"/>
      <svg:path style="font-size:182.28144836px;stroke-width:2.39844012" d="m 178.15448,494.84543 -16.37685,-37.38194 c -1.54279,-3.56014 -3.69374,-6.24511 -6.45283,-8.05492 -2.75919,-1.80971 -6.00785,-2.71459 -9.74601,-2.71464 l -4.18321,0 0,48.1515 -21.89514,0 0,-116.32903 33.91076,0 c 6.40828,1.2e-4 12.22324,0.54898 17.4449,1.64658 5.22154,1.09784 9.67177,2.92243 13.3507,5.47379 3.67877,2.55157 6.51208,5.87441 8.49994,9.96851 1.98768,4.09431 2.98156,9.10823 2.98165,15.04178 -9e-5,4.27231 -0.62312,8.06983 -1.8691,11.39259 -1.24614,3.32291 -2.99657,6.18589 -5.25127,8.58895 -2.25486,2.40319 -4.93983,4.34645 -8.05491,5.8298 -3.11524,1.48347 -6.51224,2.52186 -10.19103,3.11516 2.84808,0.59342 5.45888,2.21034 7.8324,4.85075 2.37339,2.64052 4.74684,6.45288 7.12037,11.4371 l 18.60197,38.98402 z m -5.42928,-82.06226 c -6e-5,-5.6962 -1.80982,-9.79041 -5.42928,-12.28263 -3.61958,-2.49203 -9.04885,-3.7381 -16.28784,-3.7382 l -9.6125,0 0,32.84271 8.90046,0 c 3.38213,6e-5 6.45278,-0.35596 9.21198,-1.06806 2.75909,-0.71197 5.11771,-1.78002 7.07586,-3.20416 1.95804,-1.42401 3.47112,-3.18926 4.53924,-5.29578 1.06799,-2.10636 1.60202,-4.52432 1.60208,-7.25388 z" id="svg1.path3059"/>
      <svg:path style="font-size:182.28144836px;stroke-width:2.39844012" d="m 303.918,435.21234 c -1e-4,9.01918 -1.11265,17.2076 -3.33767,24.56527 -2.22521,7.35774 -5.69639,13.63256 -10.41354,18.82448 -4.71733,5.19194 -10.7548,9.19715 -18.11244,12.01562 -7.35777,2.81848 -16.16922,4.22772 -26.43437,4.22772 l -29.54953,0 0,-116.32903 34.44478,0 c 8.90041,1.2e-4 16.68831,1.11267 23.36371,3.33767 6.67528,2.22523 12.23806,5.6519 16.68837,10.28003 4.45014,4.62834 7.78781,10.50264 10.01302,17.62292 2.22502,7.12045 3.33757,15.60554 3.33767,25.45532 z m -23.49722,1.42407 c -7e-5,-6.28959 -0.50443,-11.89688 -1.51308,-16.82187 -1.00879,-4.92484 -2.71471,-9.09322 -5.11776,-12.50515 -2.40319,-3.41175 -5.62219,-6.00772 -9.657,-7.7879 -4.03493,-1.78 -9.04885,-2.67004 -15.04178,-2.67014 l -11.12558,0 0,79.65913 9.6125,0 c 10.73984,2e-5 18.89859,-3.20415 24.47627,-9.6125 5.57755,-6.4083 8.36636,-16.49548 8.36643,-30.26157 z" id="svg1.path3061"/>
      <svg:path style="font-size:182.28144836px;stroke-width:2.39844012" d="m 401.28903,452.03421 c -9e-5,7.41709 -0.99398,13.92925 -2.98166,19.53651 -1.98785,5.60731 -4.836,10.28005 -8.54444,14.01823 -3.7086,3.7382 -8.233,6.55667 -13.5732,8.45544 -5.34034,1.89876 -11.33331,2.84814 -17.97893,2.84814 -7.47643,0 -13.88476,-0.94938 -19.225,-2.84814 -5.3403,-1.89877 -9.67186,-4.62824 -12.99467,-8.18843 -3.32286,-3.56017 -5.72598,-7.89172 -7.20938,-12.99467 -1.48342,-5.10291 -2.22512,-10.82886 -2.22511,-17.17789 l 0,-77.167 21.89513,0 0,75.83193 c -3e-5,3.91624 0.34116,7.38742 1.02355,10.41354 0.68234,3.02618 1.86907,5.59248 3.56019,7.6989 1.69105,2.10646 3.81233,3.69371 6.36383,4.76175 2.55142,1.06807 5.75558,1.60209 9.6125,1.60208 3.61946,1e-5 6.67529,-0.45984 9.16747,-1.37957 2.49207,-0.9197 4.56884,-2.40311 6.23033,-4.45023 1.66135,-2.04709 2.90741,-4.67272 3.73819,-7.87691 0.83064,-3.20414 1.24599,-7.09067 1.24606,-11.65961 l 0,-74.94188 21.89514,0 z" id="svg1.path3063"/>
      <svg:path style="font-size:182.28144836px;stroke-width:2.39844012" d="m 422.56114,396.40633 0,-17.88993 73.51781,0 0,17.88993 -25.63332,0 0,80.37116 25.63332,0 0,18.06794 -73.51781,0 0,-18.06794 25.63333,0 0,-80.37116 z" id="svg1.path3065"/>
      <svg:path style="font-size:182.28144836px;stroke-width:2.39844012" d="m 575.47108,494.84543 -31.15161,-69.4236 -6.40833,-14.95278 0,48.24051 0,36.13587 -19.93704,0 0,-116.32903 26.8794,0 31.77464,69.86862 5.60729,13.61771 0,-51.35567 0,-32.13066 19.93704,0 0,116.32903 z" id="svg1.path3067"/>
      <svg:path style="font-size:182.28144836px;stroke-width:2.39844012" d="m 706.93085,436.19139 c -10e-5,10.56193 -1.23133,19.67006 -3.69369,27.32441 -2.46255,7.65442 -5.84473,13.94408 -10.14653,18.86898 -4.30197,4.92493 -9.34556,8.57412 -15.13078,10.94757 -5.78537,2.37346 -11.97118,3.56018 -18.55746,3.56018 -15.30883,0 -26.82008,-5.08809 -34.53379,-15.26429 -7.71375,-10.17617 -11.57061,-24.96575 -11.5706,-44.3688 -10e-6,-10.56181 1.23122,-19.66994 3.69369,-27.32441 2.46245,-7.65431 5.84462,-13.94396 10.14652,-18.86898 4.30187,-4.92481 9.34546,-8.574 15.13079,-10.94757 5.78526,-2.37334 11.97107,-3.56006 18.55746,-3.56018 15.30873,1.2e-4 26.81998,5.07337 34.53379,15.21979 7.71364,10.14661 11.5705,24.95103 11.5706,44.4133 z m -23.1412,1.06805 c -7e-5,-13.76597 -1.8395,-24.03116 -5.51829,-30.79559 -3.67892,-6.76426 -9.73123,-10.14643 -18.15694,-10.14653 -4.21293,1e-4 -7.80278,0.87531 -10.76956,2.62564 -2.96685,1.75052 -5.41448,4.31681 -7.34288,7.6989 -1.92846,3.38226 -3.3377,7.55064 -4.22772,12.50514 -0.89007,4.95467 -1.33509,10.63612 -1.33507,17.04439 -2e-5,13.76609 1.85424,24.03128 5.56279,30.79559 3.70849,6.76438 9.74597,10.14655 18.11244,10.14653 4.21283,2e-5 7.81752,-0.87519 10.81406,-2.62564 2.99643,-1.7504 5.44405,-4.31669 7.34288,-7.69889 1.8987,-3.38215 3.2931,-7.55053 4.18322,-12.50515 0.88997,-4.95455 1.335,-10.636 1.33507,-17.04439 z" id="svg1.path3069"/>
    </svg:g>
  </svg:g>
  <svg:g font-size="167" id="svg1.g8-1" style="font-size:167px;text-anchor:middle;fill:#00979c;stroke:#00979c;stroke-width:20;font-family:sans-serif" transform="translate(-365.79452,0.52773446)">
    <svg:g style="font-size:197.21893311px;stroke-width:23.61903381" id="svg1.text10-7" transform="scale(1.5645974,0.63914206)">
      <svg:path style="font-size:197.21893311px;stroke-width:23.61903381" d="m 321.41756,266.30877 0,-17.43 53.25297,0 0,17.43 z" id="svg1.path3078"/>
    </svg:g>
    <svg:g style="" id="svg1.text12-4"/>
  </svg:g>
</svg:svg>
      </g>
    </g>
    <g text-rendering="geometricPrecision" shape-rendering="geometricPrecision" transform="matrix(0.2556,0,0,0.1859,13.6441,163)">
      <g clip-path="url(#clipPath4)">
        <svg opacity="1" writing-mode="lr-tb" stop-color="rgb(0, 0, 0)" shape-rendering="auto" glyph-orientation-horizontal="0deg" color-profile="auto" lighting-color="rgb(255, 255, 255)" color="rgb(0, 0, 0)" font-weight="400" alignment-baseline="auto" font-style="normal" version="1.0" color-interpolation-filters="linearrgb" text-anchor="start" stroke-linecap="butt" color-interpolation="srgb" font-variant="normal" word-spacing="normal" fill-opacity="1" text-rendering="auto" clip-path="none" text-decoration="none" letter-spacing="normal" viewBox="0 0 128.000000 128.000000" glyph-orientation-vertical="auto" display="inline" font-size-adjust="none" fill="rgb(0, 0, 0)" overflow="visible" font-stretch="normal" stroke-dasharray="none" stroke-miterlimit="4" stop-opacity="1" color-rendering="auto" font-size="12" mask="none" direction="ltr" baseline-shift="baseline" pointer-events="visiblepainted" enable-background="accumulate" fill-rule="nonzero" image-rendering="auto" stroke-dashoffset="0" width="128.000000pt" marker-end="none" clip="auto" cursor="auto" stroke="none" filter="none" visibility="visible" kerning="auto" stroke-width="1" font-family="&quot;Arial&quot;,&quot;Helvetica&quot;,sans-serif" preserveAspectRatio="xMidYMid meet" flood-opacity="1" clip-rule="nonzero" src="none" height="128.000000pt" unicode-bidi="normal" stroke-linejoin="miter" stroke-opacity="1" flood-color="rgb(0, 0, 0)" dominant-baseline="auto" marker-start="none" marker-mid="none">
<metadata>
Created by potrace 1.13, written by Peter Selinger 2001-2015
</metadata>
<g fill="#000000" transform="translate(0.000000,128.000000) scale(0.100000,-0.100000)" stroke="none">
<path d="M100 1254 c0 -40 30 -93 61 -109 21 -11 66 -15 175 -15 l148 0 40 -46 c29 -31 52 -48 79 -54 61 -13 107 3 153 54 l40 46 148 0 c109 0 154 4 175 15 31 16 61 69 61 109 0 21 -5 26 -25 26 -20 0 -25 -5 -25 -24 0 -13 -9 -35 -21 -50 l-20 -26 -150 0 -149 0 0 25 0 25 -150 0 -150 0 0 -25 0 -25 -149 0 -150 0 -20 26 c-12 15 -21 37 -21 50 0 19 -5 24 -25 24 -20 0 -25 -5 -25 -26z"/>
<path d="M463 863 c-23 -8 -14 -39 23 -77 44 -45 92 -66 154 -66 26 0 64 7 83 15 43 18 107 81 107 105 0 34 -29 30 -63 -7 -74 -82 -182 -85 -248 -5 -29 34 -40 41 -56 35z"/>
<path d="M347 686 c-3 -7 9 -27 26 -43 146 -136 388 -136 534 0 31 29 34 57 7 57 -8 0 -34 -15 -58 -34 -67 -51 -129 -71 -216 -71 -87 0 -149 20 -216 71 -48 37 -69 42 -77 20z"/>
<path d="M257 543 c-19 -19 -2 -45 53 -82 158 -105 363 -128 543 -61 77 29 177 97 177 120 0 32 -18 32 -65 0 -211 -145 -424 -143 -661 5 -22 14 -44 22 -47 18z"/>
<path d="M150 371 c0 -30 109 -100 215 -140 246 -93 518 -55 738 101 29 21 37 58 11 58 -8 0 -35 -14 -60 -31 -124 -85 -253 -123 -414 -123 -161 0 -290 38 -414 123 -51 36 -76 39 -76 12z"/>
<path d="M60 225 c-18 -22 3 -42 103 -98 171 -98 384 -141 582 -119 164 18 356 91 455 172 32 26 34 30 20 45 -14 14 -21 12 -65 -16 -81 -52 -205 -107 -290 -130 -114 -31 -336 -31 -450 0 -78 20 -218 84 -301 136 -37 23 -43 24 -54 10z"/>
</g>
</svg>
      </g>
    </g>
    <g text-rendering="geometricPrecision" shape-rendering="geometricPrecision" transform="matrix(0.2556,0,0,0.1859,84.2606,164)">
      <g clip-path="url(#clipPath5)">
        <svg opacity="1" writing-mode="lr-tb" stop-color="rgb(0, 0, 0)" shape-rendering="auto" glyph-orientation-horizontal="0deg" color-profile="auto" lighting-color="rgb(255, 255, 255)" color="rgb(0, 0, 0)" font-weight="400" alignment-baseline="auto" font-style="normal" version="1.0" color-interpolation-filters="linearrgb" text-anchor="start" stroke-linecap="butt" color-interpolation="srgb" font-variant="normal" word-spacing="normal" fill-opacity="1" text-rendering="auto" clip-path="none" text-decoration="none" letter-spacing="normal" viewBox="0 0 128.000000 128.000000" glyph-orientation-vertical="auto" display="inline" font-size-adjust="none" fill="rgb(0, 0, 0)" overflow="visible" font-stretch="normal" stroke-dasharray="none" stroke-miterlimit="4" stop-opacity="1" color-rendering="auto" font-size="12" mask="none" direction="ltr" baseline-shift="baseline" pointer-events="visiblepainted" enable-background="accumulate" fill-rule="nonzero" image-rendering="auto" stroke-dashoffset="0" width="128.000000pt" marker-end="none" clip="auto" cursor="auto" stroke="none" filter="none" visibility="visible" kerning="auto" stroke-width="1" font-family="&quot;Arial&quot;,&quot;Helvetica&quot;,sans-serif" preserveAspectRatio="xMidYMid meet" flood-opacity="1" clip-rule="nonzero" src="none" height="128.000000pt" unicode-bidi="normal" stroke-linejoin="miter" stroke-opacity="1" flood-color="rgb(0, 0, 0)" dominant-baseline="auto" marker-start="none" marker-mid="none">
<metadata>
Created by potrace 1.13, written by Peter Selinger 2001-2015
</metadata>
<g fill="#000000" transform="translate(0.000000,128.000000) scale(0.100000,-0.100000)" stroke="none">
<path d="M100 1254 c0 -40 30 -93 61 -109 21 -11 66 -15 175 -15 l148 0 40 -46 c29 -31 52 -48 79 -54 61 -13 107 3 153 54 l40 46 148 0 c109 0 154 4 175 15 31 16 61 69 61 109 0 21 -5 26 -25 26 -20 0 -25 -5 -25 -24 0 -13 -9 -35 -21 -50 l-20 -26 -150 0 -149 0 0 25 0 25 -150 0 -150 0 0 -25 0 -25 -149 0 -150 0 -20 26 c-12 15 -21 37 -21 50 0 19 -5 24 -25 24 -20 0 -25 -5 -25 -26z"/>
<path d="M463 863 c-23 -8 -14 -39 23 -77 44 -45 92 -66 154 -66 26 0 64 7 83 15 43 18 107 81 107 105 0 34 -29 30 -63 -7 -74 -82 -182 -85 -248 -5 -29 34 -40 41 -56 35z"/>
<path d="M347 686 c-3 -7 9 -27 26 -43 146 -136 388 -136 534 0 31 29 34 57 7 57 -8 0 -34 -15 -58 -34 -67 -51 -129 -71 -216 -71 -87 0 -149 20 -216 71 -48 37 -69 42 -77 20z"/>
<path d="M257 543 c-19 -19 -2 -45 53 -82 158 -105 363 -128 543 -61 77 29 177 97 177 120 0 32 -18 32 -65 0 -211 -145 -424 -143 -661 5 -22 14 -44 22 -47 18z"/>
<path d="M150 371 c0 -30 109 -100 215 -140 246 -93 518 -55 738 101 29 21 37 58 11 58 -8 0 -35 -14 -60 -31 -124 -85 -253 -123 -414 -123 -161 0 -290 38 -414 123 -51 36 -76 39 -76 12z"/>
<path d="M60 225 c-18 -22 3 -42 103 -98 171 -98 384 -141 582 -119 164 18 356 91 455 172 32 26 34 30 20 45 -14 14 -21 12 -65 -16 -81 -52 -205 -107 -290 -130 -114 -31 -336 -31 -450 0 -78 20 -218 84 -301 136 -37 23 -43 24 -54 10z"/>
</g>
</svg>
      </g>
    </g>
    <g text-rendering="geometricPrecision" shape-rendering="geometricPrecision" transform="matrix(0.0894,0,0,0.0783,323.1068,52.4614)">
      <g clip-path="url(#clipPath6)">
        <svg xml:space="preserve" opacity="1" writing-mode="lr-tb" stop-color="rgb(0, 0, 0)" shape-rendering="auto" glyph-orientation-horizontal="0deg" color-profile="auto" lighting-color="rgb(255, 255, 255)" color="rgb(0, 0, 0)" font-weight="400" alignment-baseline="auto" font-style="normal" version="1.1" color-interpolation-filters="linearrgb" text-anchor="start" stroke-linecap="butt" color-interpolation="srgb" font-variant="normal" word-spacing="normal" fill-opacity="1" text-rendering="auto" clip-path="none" text-decoration="none" letter-spacing="normal" viewBox="0 0 512 512" glyph-orientation-vertical="auto" display="inline" font-size-adjust="none" overflow="visible" fill="rgb(0, 0, 0)" font-stretch="normal" stroke-dasharray="none" id="svg4.Layer_1" stroke-miterlimit="4" stop-opacity="1" color-rendering="auto" font-size="12" pointer-events="visiblepainted" mask="none" direction="ltr" baseline-shift="baseline" enable-background="new 0 0 512 512" fill-rule="nonzero" image-rendering="auto" stroke-dashoffset="0" width="512px" marker-end="none" clip="auto" cursor="auto" stroke="none" filter="none" visibility="visible" kerning="auto" stroke-width="1" font-family="&quot;Arial&quot;,&quot;Helvetica&quot;,sans-serif" flood-opacity="1" clip-rule="nonzero" src="none" height="512px" unicode-bidi="normal" stroke-linejoin="miter" stroke-opacity="1" flood-color="rgb(0, 0, 0)" dominant-baseline="auto" marker-start="none" x="0px" marker-mid="none" y="0px">
<path d="M256,0C167.781,0,96,71.781,96,160c0,39.656,18.063,75.938,35.563,111C146.188,300.406,160,328.156,160,352  c0,17.688,14.313,32,32,32h128c17.688,0,32-14.313,32-32c0-25.031,13.969-52.906,28.781-82.375C398.094,235.125,416,199.438,416,160  C416,71.781,344.219,0,256,0z M320,352h-48v-96c0-8.844-7.156-16-16-16s-16,7.156-16,16v96h-48c0-63-64-128-64-192  c0-70.688,57.313-128,128-128s128,57.313,128,128C384,224,320,287,320,352z M304,208c0,8.844-7.156,16-16,16h-64  c-8.844,0-16-7.156-16-16s7.156-16,16-16h64C296.844,192,304,199.156,304,208z M304,160c0,8.844-7.156,16-16,16h-64  c-8.844,0-16-7.156-16-16s7.156-16,16-16h64C296.844,144,304,151.156,304,160z M320,432c8.844,0,16,7.156,16,16s-7.156,16-16,16  c8.844,0,16,7.156,16,16s-7.156,16-16,16h-32c-7.563,10.063-19.406,16-32,16s-24.438-5.938-32-16h-32c-8.844,0-16-7.156-16-16  s7.156-16,16-16c-8.844,0-16-7.156-16-16s7.156-16,16-16c-8.844,0-16-7.156-16-16s7.156-16,16-16h128c8.844,0,16,7.156,16,16  S328.844,432,320,432z"/>
</svg>
      </g>
    </g>
    <g fill="rgb(255,204,0)" text-rendering="geometricPrecision" shape-rendering="geometricPrecision" transform="matrix(1,0,0,1,-261,-113)" stroke="rgb(255,204,0)">
      <rect x="282.6917" width="74.6165" height="21" y="319.5386" clip-path="url(#clipPath2)" stroke="none"/>
    </g>
    <g text-rendering="geometricPrecision" stroke-miterlimit="1.45" shape-rendering="geometricPrecision" font-family="sans-serif" transform="matrix(1,0,0,1,-261,-113)" stroke-linecap="butt">
      <text x="286.9854" xml:space="preserve" y="334.7525" clip-path="url(#clipPath2)" stroke="none">Sensores IR</text>
      <rect fill="none" x="282.6917" width="74.6165" height="21" y="319.5386" clip-path="url(#clipPath2)"/>
    </g>
    <g fill="rgb(255,204,0)" text-rendering="geometricPrecision" shape-rendering="geometricPrecision" transform="matrix(1,0,0,1,-261,-113)" stroke="rgb(255,204,0)">
      <rect x="410.6917" width="68" height="21" y="261.4614" clip-path="url(#clipPath2)" stroke="none"/>
    </g>
    <g text-rendering="geometricPrecision" stroke-miterlimit="1.45" shape-rendering="geometricPrecision" font-family="sans-serif" transform="matrix(1,0,0,1,-261,-113)" stroke-linecap="butt">
      <text x="415.3568" xml:space="preserve" y="276.6752" clip-path="url(#clipPath2)" stroke="none">Emissor IR</text>
      <rect fill="none" x="410.6917" width="68" height="21" y="261.4614" clip-path="url(#clipPath2)"/>
    </g>
    <g fill="rgb(255,204,0)" text-rendering="geometricPrecision" shape-rendering="geometricPrecision" transform="matrix(1,0,0,1,-261,-113)" stroke="rgb(255,204,0)">
      <rect x="588" width="134" height="21" y="128.5386" clip-path="url(#clipPath2)" stroke="none"/>
    </g>
    <g text-rendering="geometricPrecision" stroke-miterlimit="1.45" shape-rendering="geometricPrecision" font-family="sans-serif" transform="matrix(1,0,0,1,-261,-113)" stroke-linecap="butt">
      <text x="592.8086" xml:space="preserve" y="143.7525" clip-path="url(#clipPath2)" stroke="none">Fita LED + Receptor IR</text>
      <rect fill="none" x="588" width="134" height="21" y="128.5386" clip-path="url(#clipPath2)"/>
    </g>
    <g text-rendering="geometricPrecision" shape-rendering="geometricPrecision" transform="matrix(0.0894,0,0,0.0783,157.9527,96.9228)">
      <g clip-path="url(#clipPath7)">
        <svg xml:space="preserve" opacity="1" writing-mode="lr-tb" stop-color="rgb(0, 0, 0)" shape-rendering="auto" glyph-orientation-horizontal="0deg" color-profile="auto" lighting-color="rgb(255, 255, 255)" color="rgb(0, 0, 0)" font-weight="400" alignment-baseline="auto" font-style="normal" version="1.1" color-interpolation-filters="linearrgb" text-anchor="start" stroke-linecap="butt" color-interpolation="srgb" font-variant="normal" word-spacing="normal" fill-opacity="1" text-rendering="auto" clip-path="none" text-decoration="none" letter-spacing="normal" viewBox="0 0 512 512" glyph-orientation-vertical="auto" display="inline" font-size-adjust="none" overflow="visible" fill="rgb(0, 0, 0)" font-stretch="normal" stroke-dasharray="none" id="svg5.Layer_1" stroke-miterlimit="4" stop-opacity="1" color-rendering="auto" font-size="12" pointer-events="visiblepainted" mask="none" direction="ltr" baseline-shift="baseline" enable-background="new 0 0 512 512" fill-rule="nonzero" image-rendering="auto" stroke-dashoffset="0" width="512px" marker-end="none" clip="auto" cursor="auto" stroke="none" filter="none" visibility="visible" kerning="auto" stroke-width="1" font-family="&quot;Arial&quot;,&quot;Helvetica&quot;,sans-serif" flood-opacity="1" clip-rule="nonzero" src="none" height="512px" unicode-bidi="normal" stroke-linejoin="miter" stroke-opacity="1" flood-color="rgb(0, 0, 0)" dominant-baseline="auto" marker-start="none" x="0px" marker-mid="none" y="0px">
<path d="M256,0C167.781,0,96,71.781,96,160c0,39.656,18.063,75.938,35.563,111C146.188,300.406,160,328.156,160,352  c0,17.688,14.313,32,32,32h128c17.688,0,32-14.313,32-32c0-25.031,13.969-52.906,28.781-82.375C398.094,235.125,416,199.438,416,160  C416,71.781,344.219,0,256,0z M320,352h-48v-96c0-8.844-7.156-16-16-16s-16,7.156-16,16v96h-48c0-63-64-128-64-192  c0-70.688,57.313-128,128-128s128,57.313,128,128C384,224,320,287,320,352z M304,208c0,8.844-7.156,16-16,16h-64  c-8.844,0-16-7.156-16-16s7.156-16,16-16h64C296.844,192,304,199.156,304,208z M304,160c0,8.844-7.156,16-16,16h-64  c-8.844,0-16-7.156-16-16s7.156-16,16-16h64C296.844,144,304,151.156,304,160z M320,432c8.844,0,16,7.156,16,16s-7.156,16-16,16  c8.844,0,16,7.156,16,16s-7.156,16-16,16h-32c-7.563,10.063-19.406,16-32,16s-24.438-5.938-32-16h-32c-8.844,0-16-7.156-16-16  s7.156-16,16-16c-8.844,0-16-7.156-16-16s7.156-16,16-16c-8.844,0-16-7.156-16-16s7.156-16,16-16h128c8.844,0,16,7.156,16,16  S328.844,432,320,432z"/>
</svg>
      </g>
    </g>
    <g text-rendering="geometricPrecision" stroke-miterlimit="1.45" shape-rendering="geometricPrecision" transform="matrix(1,0,0,1,-261,-113)" stroke-linecap="butt">
      <path fill="none" d="M306.8748 276.004 L322.132 252.6853" clip-path="url(#clipPath2)"/>
      <path d="M326.5121 245.9909 L315.758 253.2949 L321.5845 253.5221 L324.1259 258.77 Z" clip-path="url(#clipPath2)" stroke="none"/>
      <path fill="none" d="M359.3682 276.9921 L348.0705 253.2379" clip-path="url(#clipPath2)"/>
      <path d="M344.6345 246.0134 L345.2732 258.9977 L348.5 254.1409 L354.3038 254.7026 Z" clip-path="url(#clipPath2)" stroke="none"/>
      <path fill="none" d="M357.2985 229.9614 L419.5207 229.9614" clip-path="url(#clipPath2)"/>
      <path d="M427.5207 229.9614 L415.5207 224.9614 L418.5207 229.9614 L415.5207 234.9614 Z" clip-path="url(#clipPath2)" stroke="none"/>
      <path fill="none" d="M456.1598 226.1079 L584.9496 191.4362" clip-path="url(#clipPath2)"/>
      <path d="M592.6746 189.3566 L579.7874 187.6479 L583.984 191.6962 L582.387 197.3041 Z" clip-path="url(#clipPath2)" stroke="none"/>
    </g>
  </g>
</svg>
