<?xml version="1.0" encoding="UTF-8"?><svg xmlns="http://www.w3.org/2000/svg" xmlns:xlink="http://www.w3.org/1999/xlink" fill-opacity="1" color-rendering="auto" color-interpolation="auto" text-rendering="auto" stroke="black" stroke-linecap="square" width="372" stroke-miterlimit="10" shape-rendering="auto" stroke-opacity="1" fill="black" stroke-dasharray="none" font-weight="normal" stroke-width="1" height="499" font-family="'Dialog'" font-style="normal" stroke-linejoin="miter" font-size="12px" stroke-dashoffset="0" image-rendering="auto">
  <!--Generated by ySVG 2.5-->
  <defs id="genericDefs"/>
  <g>
    <defs id="defs1">
      <linearGradient x1="230.8125" gradientUnits="userSpaceOnUse" x2="310.8125" y1="509.0625" y2="549.0625" id="linearGradient1" spreadMethod="reflect">
        <stop stop-opacity="1" stop-color="rgb(232,238,247)" offset="0%"/>
        <stop stop-opacity="1" stop-color="rgb(183,201,227)" offset="100%"/>
      </linearGradient>
      <linearGradient x1="-30.1875" gradientUnits="userSpaceOnUse" x2="49.8125" y1="509.0625" y2="549.0625" id="linearGradient2" spreadMethod="reflect">
        <stop stop-opacity="1" stop-color="rgb(232,238,247)" offset="0%"/>
        <stop stop-opacity="1" stop-color="rgb(183,201,227)" offset="100%"/>
      </linearGradient>
      <linearGradient x1="230.8125" gradientUnits="userSpaceOnUse" x2="310.8125" y1="402.0625" y2="442.0625" id="linearGradient3" spreadMethod="reflect">
        <stop stop-opacity="1" stop-color="rgb(232,238,247)" offset="0%"/>
        <stop stop-opacity="1" stop-color="rgb(183,201,227)" offset="100%"/>
      </linearGradient>
      <linearGradient x1="-30.1875" gradientUnits="userSpaceOnUse" x2="49.8125" y1="402.0625" y2="442.0625" id="linearGradient4" spreadMethod="reflect">
        <stop stop-opacity="1" stop-color="rgb(232,238,247)" offset="0%"/>
        <stop stop-opacity="1" stop-color="rgb(183,201,227)" offset="100%"/>
      </linearGradient>
      <linearGradient x1="230.8125" gradientUnits="userSpaceOnUse" x2="310.8125" y1="295.0625" y2="335.0625" id="linearGradient5" spreadMethod="reflect">
        <stop stop-opacity="1" stop-color="rgb(232,238,247)" offset="0%"/>
        <stop stop-opacity="1" stop-color="rgb(183,201,227)" offset="100%"/>
      </linearGradient>
      <linearGradient x1="-30.1875" gradientUnits="userSpaceOnUse" x2="49.8125" y1="295.0625" y2="335.0625" id="linearGradient6" spreadMethod="reflect">
        <stop stop-opacity="1" stop-color="rgb(232,238,247)" offset="0%"/>
        <stop stop-opacity="1" stop-color="rgb(183,201,227)" offset="100%"/>
      </linearGradient>
      <linearGradient x1="230.8125" gradientUnits="userSpaceOnUse" x2="310.8125" y1="188.0625" y2="228.0625" id="linearGradient7" spreadMethod="reflect">
        <stop stop-opacity="1" stop-color="rgb(232,238,247)" offset="0%"/>
        <stop stop-opacity="1" stop-color="rgb(183,201,227)" offset="100%"/>
      </linearGradient>
      <linearGradient x1="-30.1875" gradientUnits="userSpaceOnUse" x2="49.8125" y1="188.0625" y2="228.0625" id="linearGradient8" spreadMethod="reflect">
        <stop stop-opacity="1" stop-color="rgb(232,238,247)" offset="0%"/>
        <stop stop-opacity="1" stop-color="rgb(183,201,227)" offset="100%"/>
      </linearGradient>
      <linearGradient x1="230.8125" gradientUnits="userSpaceOnUse" x2="310.8125" y1="81.0625" y2="121.0625" id="linearGradient9" spreadMethod="reflect">
        <stop stop-opacity="1" stop-color="rgb(232,238,247)" offset="0%"/>
        <stop stop-opacity="1" stop-color="rgb(183,201,227)" offset="100%"/>
      </linearGradient>
      <linearGradient x1="-30.1875" gradientUnits="userSpaceOnUse" x2="49.8125" y1="81.0625" y2="121.0625" id="linearGradient10" spreadMethod="reflect">
        <stop stop-opacity="1" stop-color="rgb(232,238,247)" offset="0%"/>
        <stop stop-opacity="1" stop-color="rgb(183,201,227)" offset="100%"/>
      </linearGradient>
      <linearGradient x1="100.3125" gradientUnits="userSpaceOnUse" x2="180.3125" y1="322.875" y2="362.875" id="linearGradient11" spreadMethod="reflect">
        <stop stop-opacity="1" stop-color="rgb(232,238,247)" offset="0%"/>
        <stop stop-opacity="1" stop-color="rgb(183,201,227)" offset="100%"/>
      </linearGradient>
      <clipPath clipPathUnits="userSpaceOnUse" id="clipPath1">
        <path d="M0 0 L372 0 L372 499 L0 499 L0 0 Z"/>
      </clipPath>
      <clipPath clipPathUnits="userSpaceOnUse" id="clipPath2">
        <path d="M-46 66 L326 66 L326 565 L-46 565 L-46 66 Z"/>
      </clipPath>
    </defs>
    <g fill="white" text-rendering="geometricPrecision" shape-rendering="geometricPrecision" transform="translate(46,-66)" stroke="white">
      <rect x="-46" width="372" height="499" y="66" clip-path="url(#clipPath2)" stroke="none"/>
    </g>
    <g fill="url(#linearGradient1)" text-rendering="geometricPrecision" shape-rendering="geometricPrecision" transform="matrix(1,0,0,1,46,-66)" stroke="url(#linearGradient1)">
      <rect x="230.8125" y="509.0625" clip-path="url(#clipPath2)" width="80" rx="20" ry="20" height="40" stroke="none"/>
    </g>
    <g text-rendering="geometricPrecision" stroke-miterlimit="1.45" shape-rendering="geometricPrecision" transform="matrix(1,0,0,1,46,-66)" stroke-linecap="butt">
      <rect x="230.8125" y="509.0625" clip-path="url(#clipPath2)" fill="none" width="80" rx="20" ry="20" height="40"/>
      <text x="256.8086" xml:space="preserve" y="533.7764" clip-path="url(#clipPath2)" font-family="sans-serif" stroke="none">SAIU</text>
    </g>
    <g fill="url(#linearGradient2)" text-rendering="geometricPrecision" shape-rendering="geometricPrecision" transform="matrix(1,0,0,1,46,-66)" stroke="url(#linearGradient2)">
      <rect x="-30.1875" y="509.0625" clip-path="url(#clipPath2)" width="80" rx="20" ry="20" height="40" stroke="none"/>
    </g>
    <g text-rendering="geometricPrecision" stroke-miterlimit="1.45" shape-rendering="geometricPrecision" transform="matrix(1,0,0,1,46,-66)" stroke-linecap="butt">
      <rect x="-30.1875" y="509.0625" clip-path="url(#clipPath2)" fill="none" width="80" rx="20" ry="20" height="40"/>
      <text x="-15.5205" xml:space="preserve" y="533.7764" clip-path="url(#clipPath2)" font-family="sans-serif" stroke="none">ENTROU</text>
    </g>
    <g fill="url(#linearGradient3)" text-rendering="geometricPrecision" shape-rendering="geometricPrecision" transform="matrix(1,0,0,1,46,-66)" stroke="url(#linearGradient3)">
      <rect x="230.8125" y="402.0625" clip-path="url(#clipPath2)" width="80" rx="20" ry="20" height="40" stroke="none"/>
    </g>
    <g text-rendering="geometricPrecision" stroke-miterlimit="1.45" shape-rendering="geometricPrecision" transform="matrix(1,0,0,1,46,-66)" stroke-linecap="butt">
      <rect x="230.8125" y="402.0625" clip-path="url(#clipPath2)" fill="none" width="80" rx="20" ry="20" height="40"/>
      <text x="254.8105" xml:space="preserve" y="426.7764" clip-path="url(#clipPath2)" font-family="sans-serif" stroke="none">OUT1</text>
    </g>
    <g fill="url(#linearGradient4)" text-rendering="geometricPrecision" shape-rendering="geometricPrecision" transform="matrix(1,0,0,1,46,-66)" stroke="url(#linearGradient4)">
      <rect x="-30.1875" y="402.0625" clip-path="url(#clipPath2)" width="80" rx="20" ry="20" height="40" stroke="none"/>
    </g>
    <g text-rendering="geometricPrecision" stroke-miterlimit="1.45" shape-rendering="geometricPrecision" transform="matrix(1,0,0,1,46,-66)" stroke-linecap="butt">
      <rect x="-30.1875" y="402.0625" clip-path="url(#clipPath2)" fill="none" width="80" rx="20" ry="20" height="40"/>
      <text x="-6.1895" xml:space="preserve" y="426.7764" clip-path="url(#clipPath2)" font-family="sans-serif" stroke="none">OUT2</text>
    </g>
    <g fill="url(#linearGradient5)" text-rendering="geometricPrecision" shape-rendering="geometricPrecision" transform="matrix(1,0,0,1,46,-66)" stroke="url(#linearGradient5)">
      <rect x="230.8125" y="295.0625" clip-path="url(#clipPath2)" width="80" rx="20" ry="20" height="40" stroke="none"/>
    </g>
    <g text-rendering="geometricPrecision" stroke-miterlimit="1.45" shape-rendering="geometricPrecision" transform="matrix(1,0,0,1,46,-66)" stroke-linecap="butt">
      <rect x="230.8125" y="295.0625" clip-path="url(#clipPath2)" fill="none" width="80" rx="20" ry="20" height="40"/>
      <text x="241.9697" xml:space="preserve" y="319.7764" clip-path="url(#clipPath2)" font-family="sans-serif" stroke="none">OUT2+IN1</text>
    </g>
    <g fill="url(#linearGradient6)" text-rendering="geometricPrecision" shape-rendering="geometricPrecision" transform="matrix(1,0,0,1,46,-66)" stroke="url(#linearGradient6)">
      <rect x="-30.1875" y="295.0625" clip-path="url(#clipPath2)" width="80" rx="20" ry="20" height="40" stroke="none"/>
    </g>
    <g text-rendering="geometricPrecision" stroke-miterlimit="1.45" shape-rendering="geometricPrecision" transform="matrix(1,0,0,1,46,-66)" stroke-linecap="butt">
      <rect x="-30.1875" y="295.0625" clip-path="url(#clipPath2)" fill="none" width="80" rx="20" ry="20" height="40"/>
      <text x="-19.0303" xml:space="preserve" y="319.7764" clip-path="url(#clipPath2)" font-family="sans-serif" stroke="none">OUT1+IN2</text>
    </g>
    <g fill="url(#linearGradient7)" text-rendering="geometricPrecision" shape-rendering="geometricPrecision" transform="matrix(1,0,0,1,46,-66)" stroke="url(#linearGradient7)">
      <rect x="230.8125" y="188.0625" clip-path="url(#clipPath2)" width="80" rx="20" ry="20" height="40" stroke="none"/>
    </g>
    <g text-rendering="geometricPrecision" stroke-miterlimit="1.45" shape-rendering="geometricPrecision" transform="matrix(1,0,0,1,46,-66)" stroke-linecap="butt">
      <rect x="230.8125" y="188.0625" clip-path="url(#clipPath2)" fill="none" width="80" rx="20" ry="20" height="40"/>
      <text x="248.6348" xml:space="preserve" y="212.7764" clip-path="url(#clipPath2)" font-family="sans-serif" stroke="none">IN2+IN1</text>
    </g>
    <g fill="url(#linearGradient8)" text-rendering="geometricPrecision" shape-rendering="geometricPrecision" transform="matrix(1,0,0,1,46,-66)" stroke="url(#linearGradient8)">
      <rect x="-30.1875" y="188.0625" clip-path="url(#clipPath2)" width="80" rx="20" ry="20" height="40" stroke="none"/>
    </g>
    <g text-rendering="geometricPrecision" stroke-miterlimit="1.45" shape-rendering="geometricPrecision" transform="matrix(1,0,0,1,46,-66)" stroke-linecap="butt">
      <rect x="-30.1875" y="188.0625" clip-path="url(#clipPath2)" fill="none" width="80" rx="20" ry="20" height="40"/>
      <text x="-12.3652" xml:space="preserve" y="212.7764" clip-path="url(#clipPath2)" font-family="sans-serif" stroke="none">IN1+IN2</text>
    </g>
    <g fill="url(#linearGradient9)" text-rendering="geometricPrecision" shape-rendering="geometricPrecision" transform="matrix(1,0,0,1,46,-66)" stroke="url(#linearGradient9)">
      <rect x="230.8125" y="81.0625" clip-path="url(#clipPath2)" width="80" rx="20" ry="20" height="40" stroke="none"/>
    </g>
    <g text-rendering="geometricPrecision" stroke-miterlimit="1.45" shape-rendering="geometricPrecision" transform="matrix(1,0,0,1,46,-66)" stroke-linecap="butt">
      <rect x="230.8125" y="81.0625" clip-path="url(#clipPath2)" fill="none" width="80" rx="20" ry="20" height="40"/>
      <text x="261.4756" xml:space="preserve" y="105.7764" clip-path="url(#clipPath2)" font-family="sans-serif" stroke="none">IN2</text>
    </g>
    <g fill="url(#linearGradient10)" text-rendering="geometricPrecision" shape-rendering="geometricPrecision" transform="matrix(1,0,0,1,46,-66)" stroke="url(#linearGradient10)">
      <rect x="-30.1875" y="81.0625" clip-path="url(#clipPath2)" width="80" rx="20" ry="20" height="40" stroke="none"/>
    </g>
    <g text-rendering="geometricPrecision" stroke-miterlimit="1.45" shape-rendering="geometricPrecision" transform="matrix(1,0,0,1,46,-66)" stroke-linecap="butt">
      <rect x="-30.1875" y="81.0625" clip-path="url(#clipPath2)" fill="none" width="80" rx="20" ry="20" height="40"/>
      <text x="0.4756" xml:space="preserve" y="105.7764" clip-path="url(#clipPath2)" font-family="sans-serif" stroke="none">IN1</text>
    </g>
    <g fill="url(#linearGradient11)" text-rendering="geometricPrecision" shape-rendering="geometricPrecision" transform="matrix(1,0,0,1,46,-66)" stroke="url(#linearGradient11)">
      <rect x="100.3125" y="322.875" clip-path="url(#clipPath2)" width="80" rx="20" ry="20" height="40" stroke="none"/>
    </g>
    <g text-rendering="geometricPrecision" stroke-miterlimit="1.45" shape-rendering="geometricPrecision" transform="matrix(1,0,0,1,46,-66)" stroke-linecap="butt">
      <rect x="100.3125" y="322.875" clip-path="url(#clipPath2)" fill="none" width="80" rx="20" ry="20" height="40"/>
      <text x="121.9785" xml:space="preserve" y="347.5889" clip-path="url(#clipPath2)" font-family="sans-serif" stroke="none">INÍCIO</text>
    </g>
    <g text-rendering="geometricPrecision" stroke-miterlimit="1.45" shape-rendering="geometricPrecision" transform="matrix(1,0,0,1,46,-66)" stroke-linecap="butt">
      <path fill="none" d="M270.8125 442.0466 L270.8125 501.0505" clip-path="url(#clipPath2)"/>
    </g>
    <g text-rendering="geometricPrecision" stroke-miterlimit="1.45" shape-rendering="geometricPrecision" transform="matrix(1,0,0,1,46,-66)" stroke-linecap="butt">
      <path d="M270.8125 509.0505 L275.8125 497.0505 L270.8125 500.0505 L265.8125 497.0505 Z" stroke="none" clip-path="url(#clipPath2)"/>
      <path fill="none" d="M9.8125 442.0466 L9.8125 501.0505" clip-path="url(#clipPath2)"/>
      <path d="M9.8125 509.0505 L14.8125 497.0505 L9.8125 500.0505 L4.8125 497.0505 Z" clip-path="url(#clipPath2)" stroke="none"/>
      <path fill="none" d="M270.8125 335.0466 L270.8125 394.0505" clip-path="url(#clipPath2)"/>
      <path d="M270.8125 402.0505 L275.8125 390.0505 L270.8125 393.0505 L265.8125 390.0505 Z" clip-path="url(#clipPath2)" stroke="none"/>
      <path fill="none" d="M9.8125 335.0466 L9.8125 394.0505" clip-path="url(#clipPath2)"/>
      <path d="M9.8125 402.0505 L14.8125 390.0505 L9.8125 393.0505 L4.8125 390.0505 Z" clip-path="url(#clipPath2)" stroke="none"/>
      <path fill="none" d="M270.8125 228.0466 L270.8125 287.0505" clip-path="url(#clipPath2)"/>
      <path d="M270.8125 295.0505 L275.8125 283.0505 L270.8125 286.0505 L265.8125 283.0505 Z" clip-path="url(#clipPath2)" stroke="none"/>
      <path fill="none" d="M9.8125 228.0466 L9.8125 287.0505" clip-path="url(#clipPath2)"/>
      <path d="M9.8125 295.0505 L14.8125 283.0505 L9.8125 286.0505 L4.8125 283.0505 Z" clip-path="url(#clipPath2)" stroke="none"/>
      <path fill="none" d="M270.8125 121.0466 L270.8125 180.0506" clip-path="url(#clipPath2)"/>
      <path d="M270.8125 188.0506 L275.8125 176.0506 L270.8125 179.0506 L265.8125 176.0506 Z" clip-path="url(#clipPath2)" stroke="none"/>
      <path fill="none" d="M9.8125 121.0466 L9.8125 180.0506" clip-path="url(#clipPath2)"/>
      <path d="M9.8125 188.0506 L14.8125 176.0506 L9.8125 179.0506 L4.8125 176.0506 Z" clip-path="url(#clipPath2)" stroke="none"/>
      <path fill="none" d="M256.8099 509.0846 L158.926 369.4313" clip-path="url(#clipPath2)"/>
      <path d="M154.3343 362.8802 L157.1274 375.5766 L159.4999 370.2502 L165.3162 369.837 Z" clip-path="url(#clipPath2)" stroke="none"/>
      <path fill="none" d="M23.8151 509.0846 L121.699 369.4313" clip-path="url(#clipPath2)"/>
      <path d="M126.2907 362.8802 L115.3088 369.837 L121.1251 370.2502 L123.4976 375.5766 Z" clip-path="url(#clipPath2)" stroke="none"/>
      <path fill="none" d="M151.0972 322.8912 L256.2136 128.1139" clip-path="url(#clipPath2)"/>
      <path d="M260.013 121.0737 L249.9137 129.2593 L255.7386 128.9939 L258.714 134.0086 Z" clip-path="url(#clipPath2)" stroke="none"/>
      <path fill="none" d="M129.5278 322.8912 L24.4114 128.1139" clip-path="url(#clipPath2)"/>
      <path d="M20.612 121.0737 L21.911 134.0086 L24.8864 128.9939 L30.7113 129.2593 Z" clip-path="url(#clipPath2)" stroke="none"/>
    </g>
  </g>
</svg>
